<svg id="Layer_1" data-name="Layer 1" xmlns="http://www.w3.org/2000/svg" viewBox="0 0 242.5 35.94"><defs><style>.cls-1{fill:#231f20;}</style></defs><title>r.mueller</title><path class="cls-1" d="M136.16,226.29h7.72a2,2,0,0,1,1.34.38,1.56,1.56,0,0,1,.43,1.22,1.71,1.71,0,0,1-.41,1.31,2.32,2.32,0,0,1-1.5.36H128.53a2,2,0,0,1-1.37-.42,1.6,1.6,0,0,1-.47-1.26,1.48,1.48,0,0,1,.48-1.21,2.29,2.29,0,0,1,1.48-.4h4V211.36h-1.58a6.55,6.55,0,0,1-2.81-.36,1.43,1.43,0,0,1-.56-1.31,1.54,1.54,0,0,1,.45-1.21,2,2,0,0,1,1.38-.4h5.3a1.57,1.57,0,0,1,1,.24.83.83,0,0,1,.33.71v4a16.23,16.23,0,0,1,4.61-4.12,10.36,10.36,0,0,1,5.16-1.35,6.05,6.05,0,0,1,3.35.83,2.49,2.49,0,0,1,1.28,2.15,2.13,2.13,0,0,1-.64,1.52,1.93,1.93,0,0,1-1.41.66,4.56,4.56,0,0,1-1.8-.71,4.76,4.76,0,0,0-2.27-.71,7.13,7.13,0,0,0-3.83,1.29,22.23,22.23,0,0,0-4.45,4.09Z" transform="translate(-126.69 -196.26)"/><path class="cls-1" d="M162.47,225.75a3.86,3.86,0,0,1,1.27-3,4.68,4.68,0,0,1,3.29-1.16,4.76,4.76,0,0,1,3.33,1.14,4.2,4.2,0,0,1,0,6,5.37,5.37,0,0,1-6.62,0A3.86,3.86,0,0,1,162.47,225.75Z" transform="translate(-126.69 -196.26)"/><path class="cls-1" d="M204.25,216.61a11,11,0,0,0-.59-4.43,2.09,2.09,0,0,0-2-1.15,3.13,3.13,0,0,0-2.72,1.49,7.22,7.22,0,0,0-1,4.09v9.68h.42a3.55,3.55,0,0,1,1.88.34,1.46,1.46,0,0,1,.47,1.27,1.77,1.77,0,0,1-.4,1.26,1.59,1.59,0,0,1-1.21.42h-3a1.64,1.64,0,0,1-1.36-.47,3.64,3.64,0,0,1-.36-2V214.8a4.36,4.36,0,0,0-.79-2.76,2.6,2.6,0,0,0-2.16-1,3.25,3.25,0,0,0-1.92.62,5,5,0,0,0-1.5,1.83v12.82h.85a3.47,3.47,0,0,1,1.87.35,1.45,1.45,0,0,1,.49,1.26,1.74,1.74,0,0,1-.39,1.31,2.3,2.3,0,0,1-1.51.36h-6.17a1.88,1.88,0,0,1-1.33-.41,1.67,1.67,0,0,1-.43-1.27,1.37,1.37,0,0,1,.54-1.27,4.45,4.45,0,0,1,2.11-.34h.46V211.36h-.42a4.54,4.54,0,0,1-2.21-.37,1.41,1.41,0,0,1-.59-1.29,1.52,1.52,0,0,1,.47-1.21,2.08,2.08,0,0,1,1.4-.4h3.56a1.39,1.39,0,0,1,1,.27,1.92,1.92,0,0,1,.29,1.12,6.37,6.37,0,0,1,2.05-1.5,6,6,0,0,1,2.47-.49,4.76,4.76,0,0,1,2.69.71,4.14,4.14,0,0,1,1.57,2.14,6.47,6.47,0,0,1,2.26-2.15,6.05,6.05,0,0,1,2.93-.69,5,5,0,0,1,4.39,2q1.38,2,1.38,6.33v10.54h.37a3.58,3.58,0,0,1,1.91.35,1.45,1.45,0,0,1,.48,1.26,1.7,1.7,0,0,1-.42,1.26,1.67,1.67,0,0,1-1.23.42h-2.81a1.64,1.64,0,0,1-1.37-.56,2.85,2.85,0,0,1-.44-1.77Z" transform="translate(-126.69 -196.26)"/><path class="cls-1" d="M218.41,221a6.21,6.21,0,0,0,1.23,4.28,5.06,5.06,0,0,0,3.91,1.35,6.3,6.3,0,0,0,4.34-1.61,5.17,5.17,0,0,0,1.8-4v-9.62h-3.19a1.88,1.88,0,0,1-1.31-.38,1.56,1.56,0,0,1-.41-1.19,1.7,1.7,0,0,1,.44-1.29,2,2,0,0,1,1.42-.42h5a1.66,1.66,0,0,1,1.24.38,3.08,3.08,0,0,1,.36,1.87v16h1.07a2.8,2.8,0,0,1,1.64.37,1.44,1.44,0,0,1,.5,1.23,1.58,1.58,0,0,1-.48,1.26,2,2,0,0,1-1.38.42H231a1.62,1.62,0,0,1-1-.26.82.82,0,0,1-.35-.7V227a17.09,17.09,0,0,1-3.83,2.36,8.94,8.94,0,0,1-3.36.64q-3.84,0-5.76-2t-1.92-6.16V211.36h-.49a4.4,4.4,0,0,1-2.16-.37,1.41,1.41,0,0,1-.58-1.29,1.54,1.54,0,0,1,.45-1.21,2.07,2.07,0,0,1,1.41-.4H217a1.55,1.55,0,0,1,1.13.33,2.23,2.23,0,0,1,.31,1.44Z" transform="translate(-126.69 -196.26)"/><path class="cls-1" d="M244.93,219.85A7.11,7.11,0,0,0,247.2,225a8.31,8.31,0,0,0,5.69,1.83,14.49,14.49,0,0,0,5.93-1.45A16.08,16.08,0,0,1,262.7,224a1.62,1.62,0,0,1,1.16.44,1.45,1.45,0,0,1,.47,1.09,1.82,1.82,0,0,1-.49,1.23,5.07,5.07,0,0,1-1.56,1.09,23.74,23.74,0,0,1-4.8,1.73,20.82,20.82,0,0,1-4.92.6,11.75,11.75,0,0,1-8.49-3.06,10.72,10.72,0,0,1-3.19-8.11,10.93,10.93,0,0,1,3.37-8.33,12.28,12.28,0,0,1,8.79-3.19,11.56,11.56,0,0,1,8.14,3,9.45,9.45,0,0,1,3.23,7.21,2.18,2.18,0,0,1-.55,1.74,5.85,5.85,0,0,1-3,.44h-16Zm.12-3h15.14a6.76,6.76,0,0,0-2.31-4.45,7.16,7.16,0,0,0-4.83-1.69,8.29,8.29,0,0,0-5.21,1.63A7.69,7.69,0,0,0,245,216.8Z" transform="translate(-126.69 -196.26)"/><path class="cls-1" d="M276.15,230.2a5,5,0,0,1-1,1.58,1.54,1.54,0,0,1-1.08.42,1.58,1.58,0,0,1-1.14-.48,1.55,1.55,0,0,1-.49-1.15,1.6,1.6,0,0,1,.07-.43,4.76,4.76,0,0,1,.19-.52l14.52-31.29a6.17,6.17,0,0,1,1-1.64,1.48,1.48,0,0,1,1.07-.43,1.66,1.66,0,0,1,1.19.47,1.49,1.49,0,0,1,.49,1.12,1.73,1.73,0,0,1-.06.42,1.87,1.87,0,0,1-.17.44Z" transform="translate(-126.69 -196.26)"/><path class="cls-1" d="M294.66,230.2a5,5,0,0,1-1,1.58,1.54,1.54,0,0,1-1.08.42,1.58,1.58,0,0,1-1.14-.48,1.55,1.55,0,0,1-.49-1.15,1.58,1.58,0,0,1,.07-.43,5,5,0,0,1,.19-.52l14.52-31.29a6.17,6.17,0,0,1,1-1.64,1.48,1.48,0,0,1,1.07-.43,1.66,1.66,0,0,1,1.19.47,1.49,1.49,0,0,1,.49,1.12,1.77,1.77,0,0,1-.06.42,1.83,1.83,0,0,1-.17.44Z" transform="translate(-126.69 -196.26)"/><path class="cls-1" d="M320.62,219.85a7.11,7.11,0,0,0,2.27,5.19,8.31,8.31,0,0,0,5.69,1.83,14.49,14.49,0,0,0,5.93-1.45,16.07,16.07,0,0,1,3.88-1.45,1.62,1.62,0,0,1,1.16.44,1.45,1.45,0,0,1,.46,1.09,1.82,1.82,0,0,1-.49,1.23,5.07,5.07,0,0,1-1.56,1.09,23.72,23.72,0,0,1-4.8,1.73,20.82,20.82,0,0,1-4.92.6,11.75,11.75,0,0,1-8.49-3.06,10.72,10.72,0,0,1-3.19-8.11,10.93,10.93,0,0,1,3.37-8.33,12.28,12.28,0,0,1,8.79-3.19,11.56,11.56,0,0,1,8.14,3,9.45,9.45,0,0,1,3.23,7.21,2.18,2.18,0,0,1-.55,1.74,5.85,5.85,0,0,1-3,.44h-16Zm.12-3h15.14a6.76,6.76,0,0,0-2.31-4.45,7.16,7.16,0,0,0-4.83-1.69,8.29,8.29,0,0,0-5.21,1.63A7.7,7.7,0,0,0,320.73,216.8Z" transform="translate(-126.69 -196.26)"/><path class="cls-1" d="M354.79,226.29h7.72a2,2,0,0,1,1.34.38,1.56,1.56,0,0,1,.43,1.22,1.71,1.71,0,0,1-.41,1.31,2.32,2.32,0,0,1-1.5.36H347.16a2,2,0,0,1-1.37-.42,1.6,1.6,0,0,1-.47-1.26,1.48,1.48,0,0,1,.48-1.21,2.28,2.28,0,0,1,1.48-.4h4V211.36h-1.58a6.55,6.55,0,0,1-2.81-.36,1.43,1.43,0,0,1-.56-1.31,1.54,1.54,0,0,1,.45-1.21,2,2,0,0,1,1.38-.4h5.3a1.57,1.57,0,0,1,1,.24.83.83,0,0,1,.33.71v4a16.23,16.23,0,0,1,4.61-4.12,10.36,10.36,0,0,1,5.16-1.35,6.06,6.06,0,0,1,3.35.83,2.49,2.49,0,0,1,1.28,2.15,2.13,2.13,0,0,1-.64,1.52,1.93,1.93,0,0,1-1.41.66,4.55,4.55,0,0,1-1.8-.71,4.76,4.76,0,0,0-2.27-.71,7.13,7.13,0,0,0-3.83,1.29,22.23,22.23,0,0,0-4.46,4.09Z" transform="translate(-126.69 -196.26)"/></svg>